# 3ds Max Wavefront OBJ Exporter v0.99 - (c)2007 guruware
# File Created: 13.04.2025 07:23:26

#
# object Object178
#

v  -106.0928 15.8436 -570.2701
v  -106.0928 9.3552 -570.2701
v  -107.0124 9.3552 -566.1323
v  -107.0124 14.6060 -566.1323
v  -107.0124 9.3552 -561.9945
v  -107.0124 14.6060 -561.9945
v  -111.4581 15.9972 -566.6491
v  -111.4581 9.3552 -566.6491
v  -107.3203 9.3552 -566.6491
v  -107.3203 15.2576 -566.6491
v  -101.6592 9.3552 -564.5267
v  -101.6592 15.3555 -564.5267
v  -109.4256 14.2288 -567.4993
v  -109.4256 9.3551 -567.4993
v  -111.7990 9.3551 -564.1099
v  -111.7990 14.8370 -564.1099
v  -116.1016 9.3551 -562.5997
v  -116.1016 13.5871 -562.5997
# 18 vertices

vn -0.9762 0.0377 -0.2137
vn -0.9940 0.0189 -0.1075
vn -0.9930 0.0205 -0.1164
vn -1.0000 0.0000 -0.0000
vn -0.0000 -0.1736 0.9848
vn -0.1784 -0.1709 0.9690
vn -0.1698 -0.1711 0.9705
vn -0.3510 -0.1626 0.9221
vn -0.8192 0.0996 -0.5649
vn -0.6042 0.1384 -0.7847
vn -0.6155 0.1369 -0.7761
vn -0.3312 0.1638 -0.9292
# 12 vertex normals

vt 0.0374 0.6082 0.0000
vt 0.0387 0.3104 0.0000
vt 0.2206 0.3161 0.0000
vt 0.2202 0.5757 0.0000
vt 0.4863 0.3160 0.0000
vt 0.4903 0.5765 0.0000
vt 0.0381 0.6084 0.0000
vt 0.0384 0.3102 0.0000
vt 0.2200 0.3165 0.0000
vt 0.2201 0.5759 0.0000
vt 0.4858 0.3164 0.0000
vt 0.4909 0.5763 0.0000
vt 0.5571 0.5230 0.0000
vt 0.5569 0.3060 0.0000
vt 0.7412 0.3058 0.0000
vt 0.7414 0.5499 0.0000
vt 0.9442 0.3057 0.0000
vt 0.9443 0.4941 0.0000
# 18 texture coords

o Object178
g Object178
s 1
f 1/1/1 2/2/1 3/3/2 4/4/3 
f 4/4/3 3/3/2 5/5/4 6/6/4 
f 7/7/5 8/8/5 9/9/6 10/10/7 
f 10/10/7 9/9/6 11/11/8 12/12/8 
f 13/13/9 14/14/9 15/15/10 16/16/11 
f 16/16/11 15/15/10 17/17/12 18/18/12 
# 6 polygons

#
# object Object179
#

v  -72.7797 9.4101 -562.3604
v  -73.0539 8.6524 -561.9297
v  -72.8985 8.6524 -560.1530
v  -72.5536 9.4101 -559.7766
v  -72.2758 10.0512 -562.6124
v  -72.0137 10.0512 -559.6158
v  -71.5485 10.5758 -562.7555
v  -71.2725 10.5758 -559.6012
v  -70.5964 10.9838 -562.7751
v  -70.3315 10.9838 -559.7472
v  -69.4170 11.2752 -562.6423
v  -69.1931 11.2752 -560.0828
v  -67.9963 11.4501 -562.1969
v  -67.8713 11.4501 -560.7681
v  -73.0298 9.4101 -560.4089
v  -73.4350 8.6524 -560.7197
v  -75.2184 8.6524 -560.7197
v  -75.6235 9.4101 -560.4089
v  -72.8227 10.0512 -559.8851
v  -75.8306 10.0512 -559.8851
v  -72.7435 10.5758 -559.1480
v  -75.9098 10.5758 -559.1480
v  -72.8069 10.9838 -558.1979
v  -75.8464 10.9838 -558.1979
v  -73.0421 11.2752 -557.0345
v  -75.6113 11.2752 -557.0345
v  -73.6095 11.4501 -555.6580
v  -75.0438 11.4501 -555.6580
v  -75.5286 9.4101 -559.6479
v  -75.2543 8.6524 -560.0786
v  -75.4098 8.6524 -561.8552
v  -75.7546 9.4101 -562.2316
v  -76.0324 10.0512 -559.3959
v  -76.2946 10.0512 -562.3923
v  -76.7597 10.5758 -559.2527
v  -77.0357 10.5758 -562.4070
v  -77.7118 10.9838 -559.2331
v  -77.9767 10.9838 -562.2610
v  -78.8912 11.2752 -559.3660
v  -79.1152 11.2752 -561.9254
v  -80.3120 11.4501 -559.8113
v  -80.4370 11.4501 -561.2401
v  -75.6485 9.4101 -562.4312
v  -75.2434 8.6524 -562.1204
v  -73.4600 8.6524 -562.1204
v  -73.0549 9.4101 -562.4312
v  -75.8557 10.0512 -562.9551
v  -72.8477 10.0512 -562.9551
v  -75.9349 10.5758 -563.6921
v  -72.7686 10.5758 -563.6921
v  -75.8714 10.9838 -564.6423
v  -72.8320 10.9838 -564.6423
v  -75.6363 11.2752 -565.8056
v  -73.0671 11.2752 -565.8056
v  -75.0689 11.4501 -567.1821
v  -73.6346 11.4501 -567.1821
# 56 vertices

vn -0.8371 0.5212 0.1663
vn -0.9217 0.3597 0.1453
vn -0.6696 0.7190 0.1863
vn -0.4873 0.8515 0.1934
vn -0.3250 0.9260 0.1921
vn -0.1957 0.9627 0.1871
vn -0.1256 0.9750 0.1831
vn -0.0000 0.6798 -0.7334
vn -0.0000 0.5343 -0.8453
vn -0.0000 0.8459 -0.5334
vn -0.0000 0.9439 -0.3303
vn -0.0000 0.9876 -0.1571
vn -0.0000 0.9997 -0.0232
vn -0.0000 0.9988 0.0481
vn 0.8371 0.5466 0.0220
vn 0.9217 0.3877 -0.0135
vn 0.6696 0.7393 0.0709
vn 0.4873 0.8663 0.1095
vn 0.3250 0.9359 0.1361
vn 0.1957 0.9686 0.1534
vn 0.1256 0.9789 0.1614
vn 0.0000 0.3880 0.9217
vn 0.0000 0.2130 0.9771
vn 0.0000 0.6124 0.7905
vn 0.0000 0.7740 0.6332
vn 0.0000 0.8743 0.4854
vn 0.0000 0.9315 0.3637
vn 0.0000 0.9551 0.2964
# 28 vertex normals

vt 0.5684 0.2446 0.0000
vt 0.5095 0.2155 0.0000
vt 0.5096 0.0872 0.0000
vt 0.5685 0.0581 0.0000
vt 0.6280 0.2595 0.0000
vt 0.6281 0.0432 0.0000
vt 0.6931 0.2653 0.0000
vt 0.6931 0.0375 0.0000
vt 0.7674 0.2608 0.0000
vt 0.7675 0.0422 0.0000
vt 0.8537 0.2439 0.0000
vt 0.8538 0.0592 0.0000
vt 0.9535 0.2032 0.0000
vt 0.9536 0.1000 0.0000
vt 0.5095 0.2154 0.0000
vt 0.6930 0.2653 0.0000
vt 0.6932 0.0375 0.0000
vt 0.7676 0.0422 0.0000
vt 0.8539 0.0591 0.0000
vt 0.9536 0.2032 0.0000
vt 0.5685 0.0580 0.0000
vt 0.7675 0.2608 0.0000
vt 0.8539 0.0592 0.0000
vt 0.9537 0.1000 0.0000
vt 0.8538 0.2439 0.0000
# 25 texture coords

o Object179
g Object179
s 1
f 19/19/13 20/20/14 21/21/14 22/22/13 
f 23/23/15 19/19/13 22/22/13 24/24/15 
f 25/25/16 23/23/15 24/24/15 26/26/16 
f 27/27/17 25/25/16 26/26/16 28/28/17 
f 29/29/18 27/27/17 28/28/17 30/30/18 
f 31/31/19 29/29/18 30/30/18 32/32/19 
f 33/19/20 34/33/21 35/21/21 36/22/20 
f 37/23/22 33/19/20 36/22/20 38/24/22 
f 39/34/23 37/23/22 38/24/22 40/35/23 
f 41/27/24 39/34/23 40/35/23 42/36/24 
f 43/29/25 41/27/24 42/36/24 44/37/25 
f 45/38/26 43/29/25 44/37/25 46/32/26 
f 47/19/27 48/33/28 49/21/28 50/39/27 
f 51/23/29 47/19/27 50/39/27 52/24/29 
f 53/34/30 51/23/29 52/24/29 54/35/30 
f 55/40/31 53/34/30 54/35/30 56/36/31 
f 57/29/32 55/40/31 56/36/31 58/41/32 
f 59/38/33 57/29/32 58/41/32 60/42/33 
f 61/19/34 62/33/35 63/21/35 64/22/34 
f 65/23/36 61/19/34 64/22/34 66/24/36 
f 67/34/37 65/23/36 66/24/36 68/35/37 
f 69/27/38 67/34/37 68/35/37 70/36/38 
f 71/43/39 69/27/38 70/36/38 72/37/39 
f 73/31/40 71/43/39 72/37/39 74/32/40 
# 24 polygons

#
# object Object180
#

v  -104.9231 14.2288 -553.1821
v  -104.9231 9.3551 -553.1821
v  -101.5336 9.3551 -550.8087
v  -101.5336 14.8370 -550.8087
v  -100.0235 9.3551 -546.5061
v  -100.0235 13.5871 -546.5061
# 6 vertices

vn -0.5736 -0.1422 0.8067
vn -0.7968 -0.1049 0.5950
vn -0.7881 -0.1069 0.6062
vn -0.9436 -0.0575 0.3261
# 4 vertex normals

vt 0.0616 0.2418 0.0000
vt 0.0614 0.0280 0.0000
vt 0.2496 0.0279 0.0000
vt 0.2498 0.2683 0.0000
vt 0.4496 0.0277 0.0000
vt 0.4498 0.2133 0.0000
# 6 texture coords

o Object180
g Object180
s 1
f 75/44/41 76/45/41 77/46/42 78/47/43 
f 78/47/43 77/46/42 79/48/44 80/49/44 
# 2 polygons

#
# object Object181
#

v  -82.9532 15.9972 -548.2314
v  -82.9532 9.3551 -548.2314
v  -78.8154 9.3551 -548.2314
v  -78.8154 15.2576 -548.2314
v  -73.1543 9.3552 -546.1090
v  -73.1543 15.3555 -546.1090
v  -77.5880 15.8436 -551.8524
v  -77.5880 9.3551 -551.8524
v  -78.5075 9.3551 -547.7145
v  -78.5075 14.6060 -547.7145
v  -78.5075 9.3551 -543.5767
v  -78.5075 14.6060 -543.5767
# 12 vertices

vn -0.0000 -0.1736 0.9848
vn -0.1784 -0.1709 0.9690
vn -0.1698 -0.1711 0.9705
vn -0.3510 -0.1626 0.9221
vn -0.9762 0.0377 -0.2137
vn -0.9940 0.0189 -0.1075
vn -0.9930 0.0205 -0.1164
vn -1.0000 0.0000 -0.0000
# 8 vertex normals

vt 0.0438 0.9581 0.0000
vt 0.0438 0.6743 0.0000
vt 0.2205 0.6743 0.0000
vt 0.2214 0.9232 0.0000
vt 0.4788 0.6743 0.0000
vt 0.4775 0.9236 0.0000
vt 0.0448 0.9595 0.0000
vt 0.0428 0.6749 0.0000
vt 0.2205 0.6739 0.0000
vt 0.2224 0.9242 0.0000
vt 0.4777 0.9232 0.0000
# 11 texture coords

o Object181
g Object181
s 1
f 81/50/45 82/51/45 83/52/46 84/53/47 
f 84/53/47 83/52/46 85/54/48 86/55/48 
f 87/56/49 88/57/49 89/58/50 90/59/51 
f 90/59/51 89/58/50 91/54/52 92/60/52 
# 4 polygons

#
# object Object182
#

v  -57.0700 17.2041 -551.2569
v  -57.0700 9.3551 -551.2569
v  -57.0700 9.3551 -547.1191
v  -57.0700 17.2041 -547.1191
v  -57.0700 9.3551 -542.9813
v  -57.0700 17.2041 -542.9813
v  -61.2079 17.2041 -547.1191
v  -61.2079 9.3551 -547.1191
v  -52.9322 9.3551 -547.1191
v  -52.9322 17.2041 -547.1191
# 10 vertices

vn -1.0000 0.0000 -0.0000
vn 0.0000 -0.1736 0.9848
# 2 vertex normals

vt 0.5480 0.9335 0.0000
vt 0.5480 0.6238 0.0000
vt 0.7112 0.6238 0.0000
vt 0.7112 0.9335 0.0000
vt 0.8745 0.6238 0.0000
vt 0.8745 0.9335 0.0000
# 6 texture coords

o Object182
g Object182
s 1
f 93/61/53 94/62/53 95/63/53 96/64/53 
f 96/64/53 95/63/53 97/65/53 98/66/53 
f 99/61/54 100/62/54 95/63/54 96/64/54 
f 96/64/54 95/63/54 101/65/54 102/66/54 
# 4 polygons

