# 3ds Max Wavefront OBJ Exporter v0.99 - (c)2007 guruware
# File Created: 10.04.2025 21:34:29

#
# object Object169
#

v  -237.3327 14.4296 -554.4429
v  -239.0361 14.4296 -554.4429
v  -239.8878 14.4296 -555.9183
v  -236.4810 14.4296 -555.9183
v  -236.2076 14.8120 -555.9183
v  -237.1960 14.8121 -557.6301
v  -237.3930 15.5946 -557.2891
v  -236.6015 15.5945 -555.9183
v  -239.1728 14.8121 -557.6301
v  -238.9759 15.5946 -557.2891
v  -240.1612 14.8120 -555.9183
v  -239.7673 15.5945 -555.9183
v  -239.1728 14.8121 -554.2064
v  -238.9759 15.5945 -554.5475
v  -237.1960 14.8121 -554.2064
v  -237.3930 15.5945 -554.5475
v  -237.4143 16.4826 -557.2523
v  -236.6441 16.4826 -555.9183
v  -238.9546 16.4826 -557.2523
v  -239.7247 16.4826 -555.9183
v  -238.9546 16.4826 -554.5843
v  -237.4143 16.4826 -554.5843
v  -237.5998 17.2198 -554.9058
v  -237.0151 17.2198 -555.9183
v  -239.3537 17.2198 -555.9183
v  -238.7690 17.2198 -554.9058
v  -237.5998 17.2198 -556.9309
v  -238.7690 17.2198 -556.9309
v  -237.3327 14.4296 -557.3935
v  -239.0361 14.4296 -557.3935
v  -237.5670 12.4285 -555.9183
v  -237.8757 12.4285 -556.4529
v  -237.9417 13.8024 -556.3386
v  -237.6990 13.8024 -555.9183
v  -238.4931 12.4285 -556.4529
v  -238.4271 13.8024 -556.3386
v  -238.8018 12.4285 -555.9183
v  -238.6698 13.8024 -555.9183
v  -238.4931 12.4285 -555.3835
v  -238.4271 13.8024 -555.4978
v  -237.8757 12.4285 -555.3835
v  -237.9417 13.8024 -555.4978
v  -237.9417 14.5102 -556.3387
v  -237.6990 14.5103 -555.9184
v  -238.4271 14.5102 -556.3387
v  -238.6698 14.5103 -555.9184
v  -238.4271 14.5103 -555.4979
v  -237.9417 14.5103 -555.4979
v  -244.5672 13.7436 -555.0379
v  -245.4574 13.7436 -555.0379
v  -245.9025 13.7436 -555.8089
v  -244.1221 13.7436 -555.8089
v  -243.9792 13.9410 -555.8089
v  -244.4957 13.9410 -556.7036
v  -244.5987 14.3448 -556.5253
v  -244.1850 14.3448 -555.8089
v  -245.5288 13.9410 -556.7036
v  -245.4259 14.3448 -556.5253
v  -246.0454 13.9410 -555.8089
v  -245.8395 14.3448 -555.8089
v  -245.5288 13.9410 -554.9142
v  -245.4259 14.3448 -555.0925
v  -244.4957 13.9410 -554.9142
v  -244.5987 14.3448 -555.0925
v  -244.6098 14.8032 -556.5060
v  -244.2073 14.8033 -555.8088
v  -245.4148 14.8032 -556.5060
v  -245.8173 14.8033 -555.8088
v  -245.4148 14.8033 -555.1117
v  -244.6098 14.8033 -555.1117
v  -244.7068 15.1836 -555.2797
v  -244.4012 15.1836 -555.8089
v  -245.6234 15.1836 -555.8089
v  -245.3178 15.1836 -555.2797
v  -244.7068 15.1836 -556.3380
v  -245.3178 15.1836 -556.3380
v  -244.5672 13.7436 -556.5799
v  -245.4574 13.7436 -556.5799
v  -244.6008 12.3239 -555.8088
v  -244.8065 12.3239 -556.1652
v  -244.8506 13.2197 -556.0891
v  -244.6888 13.2197 -555.8088
v  -245.2180 12.3239 -556.1652
v  -245.1740 13.2197 -556.0891
v  -245.4238 12.3239 -555.8088
v  -245.3358 13.2197 -555.8088
v  -245.2180 12.3239 -555.4525
v  -245.1740 13.2197 -555.5286
v  -244.8065 12.3239 -555.4525
v  -244.8506 13.2197 -555.5286
v  -244.8506 13.9275 -556.0892
v  -244.6888 13.9275 -555.8090
v  -245.1740 13.9275 -556.0892
v  -245.3358 13.9275 -555.8090
v  -245.1740 13.9275 -555.5287
v  -244.8506 13.9275 -555.5287
# 96 vertices

vn 0.2803 -0.8281 0.4855
vn -0.2803 -0.8281 0.4855
vn -0.5606 -0.8281 0.0000
vn 0.5606 -0.8281 -0.0000
vn 0.9978 -0.0668 0.0000
vn 0.4989 -0.0668 -0.8641
vn 0.4811 0.2723 -0.8333
vn 0.9622 0.2723 0.0000
vn -0.4989 -0.0668 -0.8641
vn -0.4811 0.2723 -0.8333
vn -0.9978 -0.0668 0.0000
vn -0.9622 0.2723 0.0000
vn -0.4989 -0.0668 0.8641
vn -0.4811 0.2723 0.8333
vn 0.4989 -0.0668 0.8641
vn 0.4811 0.2723 0.8333
vn 0.4855 0.2394 -0.8408
vn 0.9709 0.2394 0.0000
vn -0.4855 0.2394 -0.8408
vn -0.9709 0.2394 0.0000
vn -0.4855 0.2394 0.8408
vn 0.4855 0.2394 0.8408
vn 0.3143 0.7777 0.5444
vn 0.6286 0.7777 0.0000
vn -0.6286 0.7777 0.0000
vn -0.3143 0.7777 0.5444
vn 0.3143 0.7777 -0.5444
vn -0.3143 0.7777 -0.5444
vn 0.2803 -0.8281 -0.4855
vn -0.2803 -0.8281 -0.4855
vn 0.9893 0.1458 0.0000
vn 0.4947 0.1458 -0.8568
vn 0.4986 0.0749 -0.8636
vn 0.9972 0.0749 0.0000
vn -0.4947 0.1458 -0.8568
vn -0.4986 0.0749 -0.8636
vn -0.9893 0.1458 -0.0000
vn -0.9972 0.0749 0.0000
vn -0.4947 0.1458 0.8568
vn -0.4986 0.0749 0.8636
vn 0.4947 0.1458 0.8568
vn 0.4986 0.0749 0.8636
vn 0.5000 0.0000 -0.8660
vn 1.0000 0.0000 0.0000
vn -0.5000 0.0000 -0.8660
vn -1.0000 0.0000 0.0000
vn -0.5000 0.0000 0.8660
vn 0.5000 0.0000 0.8660
# 48 vertex normals

vt 0.3910 0.5612 0.0000
vt 0.3911 0.5492 0.0000
vt 0.4015 0.5432 0.0000
vt 0.4015 0.5672 0.0000
vt 0.4170 0.5739 0.0000
vt 0.4148 0.5612 0.0000
vt 0.4209 0.5607 0.0000
vt 0.4228 0.5722 0.0000
vt 0.4152 0.5477 0.0000
vt 0.4214 0.5493 0.0000
vt 0.4503 0.6122 0.0000
vt 0.4388 0.6053 0.0000
vt 0.4424 0.6004 0.0000
vt 0.4523 0.6062 0.0000
vt 0.4293 0.5965 0.0000
vt 0.4339 0.5925 0.0000
vt 0.4219 0.5859 0.0000
vt 0.4272 0.5830 0.0000
vt 0.4270 0.5603 0.0000
vt 0.4288 0.5705 0.0000
vt 0.4278 0.5498 0.0000
vt 0.4461 0.5954 0.0000
vt 0.4554 0.6006 0.0000
vt 0.4386 0.5884 0.0000
vt 0.4327 0.5800 0.0000
vt 0.4470 0.5612 0.0000
vt 0.4396 0.5647 0.0000
vt 0.4409 0.5483 0.0000
vt 0.4477 0.5530 0.0000
vt 0.4328 0.5601 0.0000
vt 0.4344 0.5689 0.0000
vt 0.4335 0.5517 0.0000
vt 0.4494 0.5907 0.0000
vt 0.4569 0.5948 0.0000
vt 0.4429 0.5846 0.0000
vt 0.4378 0.5772 0.0000
vt 0.4141 0.5747 0.0000
vt 0.4119 0.5614 0.0000
vt 0.4192 0.5873 0.0000
vt 0.4270 0.5984 0.0000
vt 0.4369 0.6076 0.0000
vt 0.4476 0.6145 0.0000
vt 0.4118 0.5490 0.0000
vt 0.4592 0.5227 0.0000
vt 0.4629 0.5227 0.0000
vt 0.4629 0.5324 0.0000
vt 0.4592 0.5324 0.0000
vt 0.4666 0.5227 0.0000
vt 0.4666 0.5324 0.0000
vt 0.4443 0.5227 0.0000
vt 0.4480 0.5227 0.0000
vt 0.4480 0.5324 0.0000
vt 0.4443 0.5324 0.0000
vt 0.4517 0.5227 0.0000
vt 0.4517 0.5324 0.0000
vt 0.4554 0.5227 0.0000
vt 0.4554 0.5324 0.0000
vt 0.4629 0.5374 0.0000
vt 0.4592 0.5374 0.0000
vt 0.4666 0.5374 0.0000
vt 0.4480 0.5374 0.0000
vt 0.4443 0.5374 0.0000
vt 0.4517 0.5374 0.0000
vt 0.4554 0.5374 0.0000
vt 0.3841 0.9600 0.0000
vt 0.3837 0.9538 0.0000
vt 0.3889 0.9503 0.0000
vt 0.3898 0.9628 0.0000
vt 0.3981 0.9657 0.0000
vt 0.3965 0.9591 0.0000
vt 0.3996 0.9587 0.0000
vt 0.4011 0.9646 0.0000
vt 0.3962 0.9521 0.0000
vt 0.3995 0.9527 0.0000
vt 0.4170 0.9843 0.0000
vt 0.4107 0.9812 0.0000
vt 0.4124 0.9785 0.0000
vt 0.4177 0.9811 0.0000
vt 0.4054 0.9770 0.0000
vt 0.4076 0.9748 0.0000
vt 0.4011 0.9718 0.0000
vt 0.4038 0.9700 0.0000
vt 0.4028 0.9583 0.0000
vt 0.4041 0.9635 0.0000
vt 0.4028 0.9527 0.0000
vt 0.4141 0.9758 0.0000
vt 0.4191 0.9781 0.0000
vt 0.4098 0.9725 0.0000
vt 0.4065 0.9683 0.0000
vt 0.4132 0.9580 0.0000
vt 0.4094 0.9601 0.0000
vt 0.4096 0.9515 0.0000
vt 0.4133 0.9537 0.0000
vt 0.4057 0.9579 0.0000
vt 0.4069 0.9625 0.0000
vt 0.4058 0.9536 0.0000
vt 0.4156 0.9733 0.0000
vt 0.4197 0.9751 0.0000
vt 0.4119 0.9704 0.0000
vt 0.4090 0.9667 0.0000
vt 0.3966 0.9662 0.0000
vt 0.3950 0.9594 0.0000
vt 0.3998 0.9726 0.0000
vt 0.4043 0.9781 0.0000
vt 0.4098 0.9825 0.0000
vt 0.4157 0.9856 0.0000
vt 0.3945 0.9529 0.0000
vt 0.4422 0.9654 0.0000
vt 0.4447 0.9654 0.0000
vt 0.4447 0.9717 0.0000
vt 0.4422 0.9717 0.0000
vt 0.4472 0.9654 0.0000
vt 0.4472 0.9717 0.0000
vt 0.4323 0.9654 0.0000
vt 0.4348 0.9654 0.0000
vt 0.4348 0.9717 0.0000
vt 0.4323 0.9717 0.0000
vt 0.4373 0.9654 0.0000
vt 0.4373 0.9717 0.0000
vt 0.4397 0.9654 0.0000
vt 0.4397 0.9717 0.0000
vt 0.4447 0.9767 0.0000
vt 0.4422 0.9767 0.0000
vt 0.4472 0.9767 0.0000
vt 0.4348 0.9767 0.0000
vt 0.4323 0.9767 0.0000
vt 0.4373 0.9767 0.0000
vt 0.4397 0.9767 0.0000
# 128 texture coords

o Object169
g Object169
s 4
f 1/1/1 2/2/2 3/3/3 4/4/4 
s 1
f 5/5/5 6/6/6 7/7/7 8/8/8 
f 6/6/6 9/9/9 10/10/10 7/7/7 
f 9/11/9 11/12/11 12/13/12 10/14/10 
f 11/12/11 13/15/13 14/16/14 12/13/12 
f 13/15/13 15/17/15 16/18/16 14/16/14 
f 15/17/15 5/5/5 8/8/8 16/18/16 
f 8/8/8 7/7/7 17/19/17 18/20/18 
f 7/7/7 10/10/10 19/21/19 17/19/17 
f 10/14/10 12/13/12 20/22/20 19/23/19 
f 12/13/12 14/16/14 21/24/21 20/22/20 
f 14/16/14 16/18/16 22/25/22 21/24/21 
f 16/18/16 8/8/8 18/20/18 22/25/22 
s 2
f 23/26/23 24/27/24 25/28/25 26/29/26 
s 1
f 18/20/18 17/19/17 27/30/27 24/31/24 
f 17/19/17 19/21/19 28/32/28 27/30/27 
f 19/23/19 20/22/20 25/33/25 28/34/28 
f 20/22/20 21/24/21 26/35/26 25/33/25 
f 21/24/21 22/25/22 23/36/23 26/35/26 
f 22/25/22 18/20/18 24/31/24 23/36/23 
s 2
f 24/27/24 27/30/27 28/32/28 25/28/25 
f 6/6/6 5/5/5 4/37/4 29/38/29 
f 5/5/5 15/17/15 1/39/1 4/37/4 
f 15/17/15 13/15/13 2/40/2 1/39/1 
f 13/15/13 11/12/11 3/41/3 2/40/2 
f 11/12/11 9/11/9 30/42/30 3/41/3 
f 9/9/9 6/6/6 29/38/29 30/43/30 
s 4
f 3/3/3 30/43/30 29/38/29 4/4/4 
s 1
f 31/44/31 32/45/32 33/46/33 34/47/34 
f 32/45/32 35/48/35 36/49/36 33/46/33 
f 35/50/35 37/51/37 38/52/38 36/53/36 
f 37/51/37 39/54/39 40/55/40 38/52/38 
f 39/54/39 41/56/41 42/57/42 40/55/40 
f 41/56/41 31/44/31 34/47/34 42/57/42 
f 34/47/34 33/46/33 43/58/43 44/59/44 
f 33/46/33 36/49/36 45/60/45 43/58/43 
f 36/53/36 38/52/38 46/61/46 45/62/45 
f 38/52/38 40/55/40 47/63/47 46/61/46 
f 40/55/40 42/57/42 48/64/48 47/63/47 
f 42/57/42 34/47/34 44/59/44 48/64/48 
s 4
f 49/65/1 50/66/2 51/67/3 52/68/4 
s 1
f 53/69/5 54/70/6 55/71/7 56/72/8 
f 54/70/6 57/73/9 58/74/10 55/71/7 
f 57/75/9 59/76/11 60/77/12 58/78/10 
f 59/76/11 61/79/13 62/80/14 60/77/12 
f 61/79/13 63/81/15 64/82/16 62/80/14 
f 63/81/15 53/69/5 56/72/8 64/82/16 
f 56/72/8 55/71/7 65/83/17 66/84/18 
f 55/71/7 58/74/10 67/85/19 65/83/17 
f 58/78/10 60/77/12 68/86/20 67/87/19 
f 60/77/12 62/80/14 69/88/21 68/86/20 
f 62/80/14 64/82/16 70/89/22 69/88/21 
f 64/82/16 56/72/8 66/84/18 70/89/22 
s 2
f 71/90/23 72/91/24 73/92/25 74/93/26 
s 1
f 66/84/18 65/83/17 75/94/27 72/95/24 
f 65/83/17 67/85/19 76/96/28 75/94/27 
f 67/87/19 68/86/20 73/97/25 76/98/28 
f 68/86/20 69/88/21 74/99/26 73/97/25 
f 69/88/21 70/89/22 71/100/23 74/99/26 
f 70/89/22 66/84/18 72/95/24 71/100/23 
s 2
f 72/91/24 75/94/27 76/96/28 73/92/25 
f 54/70/6 53/69/5 52/101/4 77/102/29 
f 53/69/5 63/81/15 49/103/1 52/101/4 
f 63/81/15 61/79/13 50/104/2 49/103/1 
f 61/79/13 59/76/11 51/105/3 50/104/2 
f 59/76/11 57/75/9 78/106/30 51/105/3 
f 57/73/9 54/70/6 77/102/29 78/107/30 
s 4
f 51/67/3 78/107/30 77/102/29 52/68/4 
s 1
f 79/108/31 80/109/32 81/110/33 82/111/34 
f 80/109/32 83/112/35 84/113/36 81/110/33 
f 83/114/35 85/115/37 86/116/38 84/117/36 
f 85/115/37 87/118/39 88/119/40 86/116/38 
f 87/118/39 89/120/41 90/121/42 88/119/40 
f 89/120/41 79/108/31 82/111/34 90/121/42 
f 82/111/34 81/110/33 91/122/43 92/123/44 
f 81/110/33 84/113/36 93/124/45 91/122/43 
f 84/117/36 86/116/38 94/125/46 93/126/45 
f 86/116/38 88/119/40 95/127/47 94/125/46 
f 88/119/40 90/121/42 96/128/48 95/127/47 
f 90/121/42 82/111/34 92/123/44 96/128/48 
# 80 polygons

