# 3ds Max Wavefront OBJ Exporter v0.99 - (c)2007 guruware
# File Created: 11.04.2025 20:22:56

#
# object Object178
#

v  155.6722 3.6603 -357.6171
v  155.6721 2.8123 -355.6014
v  159.7021 2.8123 -355.6014
v  159.7022 3.6603 -357.6171
v  155.6722 1.6616 -353.7606
v  155.6722 0.0000 -352.2147
v  159.7022 0.0000 -352.2147
v  159.7022 1.6616 -353.7606
v  159.7022 4.3391 -359.7302
v  155.6722 4.3391 -359.7302
# 10 vertices

vn 0.0000 0.9378 0.3471
vn 0.0000 0.8877 0.4604
vn 0.0000 0.7712 0.6366
vn 0.0000 0.6812 0.7321
vn 0.0000 0.9521 0.3058
# 5 vertex normals

vt 0.8509 0.2141 0.0000
vt 0.8509 0.1491 0.0000
vt 0.9742 0.1491 0.0000
vt 0.9742 0.2141 0.0000
vt 0.8509 0.0828 0.0000
vt 0.8509 0.0151 0.0000
vt 0.9742 0.0151 0.0000
vt 0.9742 0.0828 0.0000
vt 0.9742 0.2804 0.0000
vt 0.8509 0.2804 0.0000
# 10 texture coords

o Object178
g Object178
s 1
f 1/1/1 2/2/2 3/3/2 4/4/1 
f 5/5/3 6/6/4 7/7/4 8/8/3 
f 2/2/2 5/5/3 8/8/3 3/3/2 
f 4/4/1 9/9/5 10/10/5 1/1/1 
# 4 polygons

