# 3ds Max Wavefront OBJ Exporter v0.99 - (c)2007 guruware
# File Created: 11.04.2025 20:25:42

#
# object Object174
#

v  120.2042 -0.2746 -393.2335
v  117.1463 8.7939 -392.8302
v  119.9178 6.0654 -390.1922
v  120.8039 -0.2746 -388.8820
v  117.5893 -0.2746 -395.6666
v  112.4024 -0.2746 -396.3403
v  113.9977 5.8952 -395.8235
v  108.1449 -0.2746 -393.2335
v  106.9853 -0.2746 -388.5387
v  109.0346 7.6027 -389.7358
v  109.2471 -0.2746 -394.6933
v  109.3553 -0.2746 -384.9235
v  111.2029 8.9103 -386.5303
v  112.3592 -0.2746 -383.0145
v  115.5073 5.1107 -382.2547
v  115.9467 -0.2746 -383.1642
v  119.1021 -0.2746 -384.8112
v  118.5708 7.3894 -386.6081
v  115.2657 9.1805 -385.9855
v  117.2130 9.6652 -388.5772
# 20 vertices

vn 0.8522 0.1946 -0.4856
vn 0.3498 0.7592 -0.5489
vn 0.9405 0.3218 -0.1093
vn 0.9763 0.1524 0.1539
vn 0.4836 0.2355 -0.8430
vn -0.2120 0.1232 -0.9695
vn -0.1030 0.4555 -0.8843
vn -0.8545 0.2666 -0.4458
vn -0.9560 0.2350 0.1755
vn -0.7732 0.6179 -0.1427
vn -0.6560 0.3461 -0.6707
vn -0.6842 0.2340 0.6907
vn -0.5122 0.7678 0.3849
vn -0.3613 0.0966 0.9274
vn 0.2238 0.3369 0.9145
vn 0.2713 -0.1259 0.9542
vn 0.7823 0.0930 0.6159
vn 0.7087 0.3954 0.5844
vn 0.1224 0.8347 0.5369
vn 0.3810 0.9231 0.0514
# 20 vertex normals

vt 0.5413 0.9683 0.0000
vt 0.5470 0.8728 0.0000
vt 0.5807 0.9011 0.0000
vt 0.5879 0.9704 0.0000
vt 0.4979 0.9579 0.0000
vt 0.4471 0.9204 0.0000
vt 0.5006 0.8871 0.0000
vt 0.4150 0.8546 0.0000
vt 0.4106 0.7981 0.0000
vt 0.4906 0.8084 0.0000
vt 0.4215 0.8824 0.0000
vt 0.4239 0.7548 0.0000
vt 0.5186 0.7856 0.0000
vt 0.4376 0.7182 0.0000
vt 0.4985 0.7186 0.0000
vt 0.4629 0.6794 0.0000
vt 0.4980 0.6504 0.0000
vt 0.5396 0.6297 0.0000
vt 0.5793 0.6856 0.0000
vt 0.5503 0.7130 0.0000
vt 0.5407 0.7485 0.0000
vt 0.5727 0.7394 0.0000
vt 0.5734 0.8400 0.0000
# 23 texture coords

o Object174
g Object174
s off
f 1/1/1 2/2/2 3/3/3 4/4/4 
f 5/5/5 6/6/6 7/7/7 
f 8/8/8 9/9/9 10/10/10 
s 1
f 11/11/11 7/7/7 6/6/6 
s 2
f 11/11/11 8/8/8 10/10/10 7/7/7 
s 1
f 9/9/9 12/12/12 13/13/13 10/10/10 
s off
f 14/14/14 15/15/15 13/13/13 12/12/12 
s 2
f 14/14/14 16/16/16 15/15/15 
s 32
f 17/17/17 15/15/15 16/16/16 
s 2
f 17/17/17 4/18/4 3/19/3 18/20/18 
s 32
f 15/15/15 19/21/19 13/13/13 
s 1
f 15/15/15 17/17/17 18/20/18 19/21/19 
s 32
f 18/20/18 20/22/20 19/21/19 
s 2
f 19/21/19 20/22/20 13/13/13 
s off
f 7/7/7 10/10/10 2/2/2 
s 2
f 10/10/10 13/13/13 20/23/20 
f 2/2/2 10/10/10 20/23/20 
s 1
f 2/2/2 20/23/20 3/3/3 
s off
f 18/20/18 3/19/3 20/22/20 
s 2
f 1/1/1 5/5/5 7/7/7 2/2/2 
# 7 polygons - 13 triangles

