# 3ds Max Wavefront OBJ Exporter v0.99 - (c)2007 guruware
# File Created: 14.04.2025 05:38:29

#
# object Object183
#

v  -243.2098 10.3261 -573.3699
v  -243.2098 10.0265 -581.9241
v  -244.8786 10.0265 -581.7597
v  -246.4834 10.0265 -581.2729
v  -247.9623 10.0265 -580.4824
v  -249.2585 10.0265 -579.4186
v  -250.3224 10.0265 -578.1223
v  -251.1129 10.0265 -576.6434
v  -251.5996 10.0265 -575.0387
v  -251.7640 10.0265 -573.3699
v  -251.5996 10.0265 -571.7010
v  -251.1129 10.0265 -570.0963
v  -250.3224 10.0265 -568.6174
v  -249.2585 10.0265 -567.3212
v  -247.9623 10.0265 -566.2573
v  -246.4833 10.0265 -565.4668
v  -244.8786 10.0265 -564.9800
v  -243.2098 10.0265 -564.8157
v  -241.5410 10.0265 -564.9800
v  -239.9362 10.0265 -565.4669
v  -238.4573 10.0265 -566.2573
v  -237.1611 10.0265 -567.3212
v  -236.0972 10.0265 -568.6174
v  -235.3068 10.0265 -570.0963
v  -234.8200 10.0265 -571.7010
v  -234.6556 10.0265 -573.3699
v  -234.8200 10.0265 -575.0388
v  -235.3068 10.0265 -576.6434
v  -236.0973 10.0265 -578.1224
v  -237.1611 10.0265 -579.4186
v  -238.4574 10.0265 -580.4824
v  -239.9363 10.0265 -581.2729
v  -241.5410 10.0265 -581.7597
v  -243.2098 9.1393 -590.1495
v  -246.4834 9.1393 -589.8271
v  -249.6311 9.1393 -588.8723
v  -252.5321 9.1393 -587.3217
v  -255.0748 9.1393 -585.2349
v  -257.1616 9.1393 -582.6921
v  -258.7122 9.1393 -579.7912
v  -259.6671 9.1393 -576.6434
v  -259.9894 9.1393 -573.3699
v  -259.6671 9.1393 -570.0963
v  -258.7122 9.1393 -566.9485
v  -257.1616 9.1393 -564.0476
v  -255.0748 9.1393 -561.5049
v  -252.5321 9.1393 -559.4181
v  -249.6311 9.1393 -557.8675
v  -246.4833 9.1393 -556.9126
v  -243.2098 9.1393 -556.5902
v  -239.9362 9.1393 -556.9127
v  -236.7885 9.1393 -557.8675
v  -233.8875 9.1393 -559.4181
v  -231.3448 9.1393 -561.5049
v  -229.2580 9.1393 -564.0476
v  -227.7074 9.1393 -566.9486
v  -226.7526 9.1393 -570.0964
v  -226.4302 9.1393 -573.3699
v  -226.7526 9.1393 -576.6434
v  -227.7074 9.1393 -579.7912
v  -229.2581 9.1393 -582.6922
v  -231.3448 9.1393 -585.2349
v  -233.8876 9.1393 -587.3217
v  -236.7885 9.1393 -588.8723
v  -239.9363 9.1393 -589.8271
v  -243.2098 7.6986 -597.7302
v  -247.9623 7.6986 -597.2621
v  -252.5321 7.6986 -595.8759
v  -256.7437 7.6986 -593.6247
v  -260.4351 7.6986 -590.5952
v  -263.4646 7.6986 -586.9037
v  -265.7158 7.6986 -582.6921
v  -267.1020 7.6986 -578.1223
v  -267.5701 7.6986 -573.3699
v  -267.1020 7.6986 -568.6174
v  -265.7158 7.6986 -564.0476
v  -263.4646 7.6986 -559.8360
v  -260.4351 7.6986 -556.1445
v  -256.7437 7.6986 -553.1151
v  -252.5321 7.6986 -550.8639
v  -247.9622 7.6986 -549.4777
v  -243.2098 7.6986 -549.0096
v  -238.4573 7.6986 -549.4777
v  -233.8875 7.6986 -550.8639
v  -229.6759 7.6986 -553.1151
v  -225.9845 7.6986 -556.1446
v  -222.9550 7.6986 -559.8361
v  -220.7038 7.6986 -564.0476
v  -219.3176 7.6986 -568.6174
v  -218.8495 7.6986 -573.3699
v  -219.3176 7.6986 -578.1224
v  -220.7039 7.6986 -582.6922
v  -222.9550 7.6986 -586.9037
v  -225.9845 7.6986 -590.5952
v  -229.6760 7.6986 -593.6248
v  -233.8876 7.6986 -595.8759
v  -238.4574 7.6986 -597.2621
v  -243.2098 5.7596 -604.3746
v  -249.2585 5.7596 -603.7789
v  -255.0748 5.7596 -602.0145
v  -260.4351 5.7596 -599.1494
v  -265.1335 5.7596 -595.2936
v  -268.9893 5.7596 -590.5952
v  -271.8545 5.7596 -585.2349
v  -273.6188 5.7596 -579.4186
v  -274.2146 5.7596 -573.3699
v  -273.6188 5.7596 -567.3211
v  -271.8545 5.7596 -561.5048
v  -268.9893 5.7596 -556.1445
v  -265.1335 5.7596 -551.4462
v  -260.4351 5.7596 -547.5903
v  -255.0748 5.7596 -544.7252
v  -249.2585 5.7596 -542.9609
v  -243.2098 5.7596 -542.3651
v  -237.1610 5.7596 -542.9609
v  -231.3448 5.7596 -544.7252
v  -225.9845 5.7596 -547.5904
v  -221.2861 5.7596 -551.4462
v  -217.4303 5.7596 -556.1446
v  -214.5651 5.7596 -561.5049
v  -212.8008 5.7596 -567.3212
v  -212.2050 5.7596 -573.3699
v  -212.8008 5.7596 -579.4186
v  -214.5652 5.7596 -585.2349
v  -217.4303 5.7596 -590.5952
v  -221.2862 5.7596 -595.2936
v  -225.9845 5.7596 -599.1494
v  -231.3448 5.7596 -602.0146
v  -237.1611 5.7596 -603.7789
v  -243.2098 3.3970 -609.8276
v  -250.3224 3.3970 -609.1271
v  -257.1616 3.3970 -607.0524
v  -263.4646 3.3970 -603.6834
v  -268.9893 3.3970 -599.1494
v  -273.5233 3.3970 -593.6247
v  -276.8924 3.3970 -587.3217
v  -278.9670 3.3970 -580.4824
v  -279.6675 3.3970 -573.3699
v  -278.9670 3.3970 -566.2573
v  -276.8924 3.3970 -559.4181
v  -273.5233 3.3970 -553.1150
v  -268.9893 3.3970 -547.5903
v  -263.4646 3.3970 -543.0563
v  -257.1616 3.3970 -539.6873
v  -250.3223 3.3970 -537.6127
v  -243.2098 3.3970 -536.9121
v  -236.0972 3.3970 -537.6127
v  -229.2580 3.3970 -539.6873
v  -222.9549 3.3970 -543.0564
v  -217.4303 3.3970 -547.5904
v  -212.8963 3.3970 -553.1151
v  -209.5272 3.3970 -559.4182
v  -207.4526 3.3970 -566.2574
v  -206.7521 3.3970 -573.3699
v  -207.4526 3.3970 -580.4825
v  -209.5273 3.3970 -587.3217
v  -212.8963 3.3970 -593.6248
v  -217.4303 3.3970 -599.1494
v  -222.9550 3.3970 -603.6834
v  -229.2581 3.3970 -607.0525
v  -236.0973 3.3970 -609.1271
v  -243.2098 0.7016 -613.8795
v  -251.1129 0.7016 -613.1012
v  -258.7122 0.7016 -610.7960
v  -265.7158 0.7016 -607.0524
v  -271.8545 0.7016 -602.0145
v  -276.8924 0.7016 -595.8759
v  -280.6359 0.7016 -588.8723
v  -282.9411 0.7016 -581.2729
v  -283.7195 0.7016 -573.3699
v  -282.9411 0.7015 -565.4668
v  -280.6359 0.7016 -557.8675
v  -276.8924 0.7016 -550.8639
v  -271.8545 0.7016 -544.7252
v  -265.7158 0.7016 -539.6873
v  -258.7122 0.7016 -535.9438
v  -251.1128 0.7015 -533.6385
v  -243.2098 0.7016 -532.8602
v  -235.3067 0.7015 -533.6386
v  -227.7074 0.7016 -535.9438
v  -220.7038 0.7016 -539.6873
v  -214.5651 0.7016 -544.7252
v  -209.5272 0.7015 -550.8640
v  -205.7837 0.7016 -557.8676
v  -203.4785 0.7016 -565.4669
v  -202.7001 0.7016 -573.3699
v  -203.4785 0.7016 -581.2730
v  -205.7838 0.7016 -588.8723
v  -209.5273 0.7016 -595.8759
v  -214.5652 0.7016 -602.0146
v  -220.7039 0.7016 -607.0525
v  -227.7075 0.7016 -610.7960
v  -235.3069 0.7015 -613.1012
# 193 vertices

vn -0.0000 0.9848 0.1736
vn 0.0000 0.9949 0.1009
vn -0.0143 0.9947 0.1023
vn -0.0281 0.9939 0.1064
vn -0.0408 0.9928 0.1131
vn -0.0519 0.9912 0.1221
vn -0.0610 0.9892 0.1330
vn -0.0678 0.9870 0.1455
vn -0.0720 0.9846 0.1591
vn -0.0734 0.9822 0.1732
vn -0.0720 0.9797 0.1873
vn -0.0678 0.9773 0.2008
vn -0.0610 0.9751 0.2133
vn -0.0519 0.9731 0.2243
vn -0.0408 0.9715 0.2333
vn -0.0281 0.9704 0.2400
vn -0.0143 0.9696 0.2441
vn -0.0000 0.9694 0.2455
vn 0.0143 0.9696 0.2441
vn 0.0281 0.9704 0.2400
vn 0.0408 0.9715 0.2333
vn 0.0519 0.9731 0.2243
vn 0.0610 0.9751 0.2133
vn 0.0678 0.9773 0.2008
vn 0.0720 0.9797 0.1873
vn 0.0734 0.9822 0.1732
vn 0.0720 0.9846 0.1591
vn 0.0678 0.9870 0.1455
vn 0.0610 0.9892 0.1330
vn 0.0519 0.9912 0.1221
vn 0.0408 0.9928 0.1131
vn 0.0281 0.9939 0.1064
vn 0.0143 0.9947 0.1023
vn 0.0000 0.9997 0.0244
vn -0.0292 0.9992 0.0272
vn -0.0572 0.9977 0.0356
vn -0.0831 0.9953 0.0492
vn -0.1057 0.9921 0.0676
vn -0.1243 0.9882 0.0899
vn -0.1382 0.9837 0.1153
vn -0.1467 0.9788 0.1430
vn -0.1496 0.9737 0.1717
vn -0.1467 0.9687 0.2004
vn -0.1382 0.9638 0.2281
vn -0.1243 0.9593 0.2535
vn -0.1057 0.9554 0.2758
vn -0.0831 0.9521 0.2942
vn -0.0572 0.9497 0.3078
vn -0.0292 0.9483 0.3161
vn -0.0000 0.9478 0.3190
vn 0.0292 0.9483 0.3161
vn 0.0572 0.9497 0.3078
vn 0.0831 0.9521 0.2942
vn 0.1057 0.9554 0.2758
vn 0.1243 0.9593 0.2535
vn 0.1382 0.9638 0.2281
vn 0.1467 0.9687 0.2004
vn 0.1496 0.9737 0.1717
vn 0.1467 0.9788 0.1430
vn 0.1382 0.9837 0.1153
vn 0.1243 0.9882 0.0899
vn 0.1057 0.9921 0.0676
vn 0.0831 0.9953 0.0492
vn 0.0572 0.9977 0.0356
vn 0.0292 0.9992 0.0272
vn 0.0000 0.9979 -0.0642
vn -0.0461 0.9971 -0.0597
vn -0.0905 0.9948 -0.0465
vn -0.1314 0.9910 -0.0250
vn -0.1672 0.9859 0.0040
vn -0.1967 0.9797 0.0393
vn -0.2185 0.9726 0.0796
vn -0.2320 0.9649 0.1233
vn -0.2365 0.9569 0.1687
vn -0.2320 0.9489 0.2142
vn -0.2185 0.9411 0.2579
vn -0.1967 0.9340 0.2981
vn -0.1672 0.9278 0.3334
vn -0.1314 0.9227 0.3624
vn -0.0905 0.9189 0.3839
vn -0.0461 0.9166 0.3972
vn -0.0000 0.9158 0.4017
vn 0.0461 0.9166 0.3972
vn 0.0905 0.9189 0.3839
vn 0.1314 0.9227 0.3624
vn 0.1672 0.9278 0.3334
vn 0.1967 0.9340 0.2981
vn 0.2185 0.9411 0.2579
vn 0.2320 0.9489 0.2142
vn 0.2365 0.9569 0.1687
vn 0.2320 0.9649 0.1233
vn 0.2185 0.9726 0.0796
vn 0.1967 0.9797 0.0393
vn 0.1672 0.9859 0.0040
vn 0.1314 0.9910 -0.0250
vn 0.0905 0.9948 -0.0465
vn 0.0461 0.9971 -0.0597
vn -0.0000 0.9846 -0.1746
vn -0.0669 0.9835 -0.1681
vn -0.1312 0.9801 -0.1489
vn -0.1905 0.9746 -0.1177
vn -0.2425 0.9672 -0.0757
vn -0.2851 0.9582 -0.0245
vn -0.3168 0.9479 0.0339
vn -0.3364 0.9367 0.0972
vn -0.3429 0.9251 0.1631
vn -0.3364 0.9135 0.2290
vn -0.3168 0.9023 0.2924
vn -0.2851 0.8920 0.3508
vn -0.2425 0.8830 0.4019
vn -0.1905 0.8756 0.4439
vn -0.1312 0.8701 0.4751
vn -0.0669 0.8667 0.4944
vn 0.0000 0.8655 0.5009
vn 0.0669 0.8667 0.4944
vn 0.1312 0.8701 0.4751
vn 0.1905 0.8756 0.4439
vn 0.2425 0.8830 0.4019
vn 0.2851 0.8920 0.3508
vn 0.3168 0.9023 0.2924
vn 0.3364 0.9135 0.2290
vn 0.3429 0.9251 0.1631
vn 0.3364 0.9367 0.0972
vn 0.3168 0.9479 0.0339
vn 0.2851 0.9582 -0.0245
vn 0.2425 0.9672 -0.0757
vn 0.1905 0.9746 -0.1177
vn 0.1312 0.9801 -0.1489
vn 0.0669 0.9835 -0.1681
vn -0.0000 0.9466 -0.3224
vn -0.0940 0.9450 -0.3133
vn -0.1844 0.9402 -0.2863
vn -0.2677 0.9325 -0.2424
vn -0.3407 0.9221 -0.1834
vn -0.4007 0.9094 -0.1115
vn -0.4452 0.8949 -0.0294
vn -0.4726 0.8793 0.0596
vn -0.4819 0.8629 0.1522
vn -0.4726 0.8466 0.2447
vn -0.4452 0.8309 0.3338
vn -0.4007 0.8164 0.4158
vn -0.3407 0.8038 0.4877
vn -0.2677 0.7934 0.5467
vn -0.1844 0.7856 0.5906
vn -0.0940 0.7809 0.6176
vn 0.0000 0.7793 0.6267
vn 0.0940 0.7809 0.6176
vn 0.1844 0.7856 0.5906
vn 0.2677 0.7934 0.5467
vn 0.3407 0.8038 0.4877
vn 0.4007 0.8164 0.4158
vn 0.4452 0.8309 0.3338
vn 0.4726 0.8466 0.2447
vn 0.4819 0.8629 0.1522
vn 0.4726 0.8793 0.0596
vn 0.4452 0.8949 -0.0294
vn 0.4007 0.9094 -0.1115
vn 0.3407 0.9221 -0.1834
vn 0.2677 0.9325 -0.2424
vn 0.1844 0.9402 -0.2863
vn 0.0940 0.9450 -0.3133
vn -0.0000 0.9161 -0.4009
vn -0.1081 0.9143 -0.3904
vn -0.2120 0.9088 -0.3594
vn -0.3077 0.8999 -0.3090
vn -0.3916 0.8880 -0.2411
vn -0.4605 0.8734 -0.1585
vn -0.5117 0.8568 -0.0642
vn -0.5432 0.8387 0.0382
vn -0.5539 0.8200 0.1446
vn -0.5432 0.8012 0.2510
vn -0.5117 0.7831 0.3533
vn -0.4605 0.7665 0.4476
vn -0.3916 0.7519 0.5303
vn -0.3077 0.7400 0.5981
vn -0.2120 0.7311 0.6485
vn -0.1081 0.7256 0.6796
vn 0.0000 0.7238 0.6900
vn 0.1081 0.7256 0.6796
vn 0.2120 0.7311 0.6485
vn 0.3077 0.7400 0.5981
vn 0.3916 0.7519 0.5303
vn 0.4605 0.7665 0.4476
vn 0.5117 0.7831 0.3533
vn 0.5432 0.8012 0.2510
vn 0.5539 0.8200 0.1446
vn 0.5432 0.8387 0.0382
vn 0.5117 0.8568 -0.0642
vn 0.4605 0.8734 -0.1585
vn 0.3916 0.8880 -0.2411
vn 0.3077 0.8999 -0.3090
vn 0.2120 0.9088 -0.3594
vn 0.1081 0.9143 -0.3904
# 193 vertex normals

vt 0.2422 0.7544 0.0000
vt 0.2422 0.7997 0.0000
vt 0.2334 0.7988 0.0000
vt 0.2249 0.7962 0.0000
vt 0.2170 0.7920 0.0000
vt 0.2102 0.7864 0.0000
vt 0.2045 0.7795 0.0000
vt 0.2003 0.7717 0.0000
vt 0.1978 0.7632 0.0000
vt 0.1969 0.7544 0.0000
vt 0.1978 0.7455 0.0000
vt 0.2003 0.7370 0.0000
vt 0.2045 0.7292 0.0000
vt 0.2102 0.7223 0.0000
vt 0.2170 0.7167 0.0000
vt 0.2249 0.7125 0.0000
vt 0.2334 0.7099 0.0000
vt 0.2422 0.7090 0.0000
vt 0.2510 0.7099 0.0000
vt 0.2595 0.7125 0.0000
vt 0.2674 0.7167 0.0000
vt 0.2742 0.7223 0.0000
vt 0.2799 0.7292 0.0000
vt 0.2841 0.7370 0.0000
vt 0.2866 0.7455 0.0000
vt 0.2875 0.7544 0.0000
vt 0.2866 0.7632 0.0000
vt 0.2841 0.7717 0.0000
vt 0.2799 0.7795 0.0000
vt 0.2742 0.7864 0.0000
vt 0.2674 0.7920 0.0000
vt 0.2595 0.7962 0.0000
vt 0.2510 0.7988 0.0000
vt 0.2422 0.8436 0.0000
vt 0.2248 0.8419 0.0000
vt 0.2081 0.8368 0.0000
vt 0.1926 0.8285 0.0000
vt 0.1791 0.8174 0.0000
vt 0.1680 0.8039 0.0000
vt 0.1598 0.7885 0.0000
vt 0.1547 0.7718 0.0000
vt 0.1530 0.7544 0.0000
vt 0.1547 0.7370 0.0000
vt 0.1598 0.7202 0.0000
vt 0.1680 0.7048 0.0000
vt 0.1791 0.6913 0.0000
vt 0.1926 0.6802 0.0000
vt 0.2081 0.6719 0.0000
vt 0.2248 0.6669 0.0000
vt 0.2422 0.6651 0.0000
vt 0.2596 0.6669 0.0000
vt 0.2764 0.6719 0.0000
vt 0.2918 0.6802 0.0000
vt 0.3053 0.6913 0.0000
vt 0.3164 0.7048 0.0000
vt 0.3246 0.7202 0.0000
vt 0.3297 0.7370 0.0000
vt 0.3314 0.7544 0.0000
vt 0.3297 0.7718 0.0000
vt 0.3246 0.7885 0.0000
vt 0.3164 0.8039 0.0000
vt 0.3053 0.8174 0.0000
vt 0.2918 0.8285 0.0000
vt 0.2763 0.8368 0.0000
vt 0.2596 0.8419 0.0000
vt 0.2422 0.8845 0.0000
vt 0.2168 0.8820 0.0000
vt 0.1924 0.8746 0.0000
vt 0.1699 0.8626 0.0000
vt 0.1502 0.8464 0.0000
vt 0.1340 0.8267 0.0000
vt 0.1220 0.8042 0.0000
vt 0.1146 0.7797 0.0000
vt 0.1121 0.7544 0.0000
vt 0.1146 0.7290 0.0000
vt 0.1220 0.7046 0.0000
vt 0.1340 0.6821 0.0000
vt 0.1502 0.6623 0.0000
vt 0.1699 0.6462 0.0000
vt 0.1924 0.6341 0.0000
vt 0.2168 0.6267 0.0000
vt 0.2422 0.6242 0.0000
vt 0.2676 0.6267 0.0000
vt 0.2920 0.6341 0.0000
vt 0.3145 0.6462 0.0000
vt 0.3342 0.6623 0.0000
vt 0.3504 0.6821 0.0000
vt 0.3624 0.7046 0.0000
vt 0.3698 0.7290 0.0000
vt 0.3723 0.7544 0.0000
vt 0.3698 0.7797 0.0000
vt 0.3624 0.8042 0.0000
vt 0.3504 0.8267 0.0000
vt 0.3342 0.8464 0.0000
vt 0.3145 0.8626 0.0000
vt 0.2920 0.8746 0.0000
vt 0.2676 0.8820 0.0000
vt 0.2422 0.9212 0.0000
vt 0.2097 0.9180 0.0000
vt 0.1784 0.9085 0.0000
vt 0.1495 0.8931 0.0000
vt 0.1243 0.8723 0.0000
vt 0.1035 0.8470 0.0000
vt 0.0881 0.8182 0.0000
vt 0.0786 0.7869 0.0000
vt 0.0754 0.7544 0.0000
vt 0.0786 0.7218 0.0000
vt 0.0881 0.6905 0.0000
vt 0.1035 0.6617 0.0000
vt 0.1243 0.6364 0.0000
vt 0.1495 0.6157 0.0000
vt 0.1784 0.6002 0.0000
vt 0.2097 0.5907 0.0000
vt 0.2422 0.5875 0.0000
vt 0.2748 0.5907 0.0000
vt 0.3060 0.6002 0.0000
vt 0.3349 0.6157 0.0000
vt 0.3602 0.6364 0.0000
vt 0.3809 0.6617 0.0000
vt 0.3963 0.6905 0.0000
vt 0.4058 0.7218 0.0000
vt 0.4090 0.7544 0.0000
vt 0.4058 0.7869 0.0000
vt 0.3963 0.8182 0.0000
vt 0.3809 0.8470 0.0000
vt 0.3602 0.8723 0.0000
vt 0.3349 0.8931 0.0000
vt 0.3061 0.9085 0.0000
vt 0.2748 0.9180 0.0000
vt 0.2422 0.9527 0.0000
vt 0.2035 0.9489 0.0000
vt 0.1663 0.9376 0.0000
vt 0.1320 0.9193 0.0000
vt 0.1020 0.8946 0.0000
vt 0.0773 0.8645 0.0000
vt 0.0590 0.8303 0.0000
vt 0.0477 0.7931 0.0000
vt 0.0439 0.7544 0.0000
vt 0.0477 0.7157 0.0000
vt 0.0590 0.6785 0.0000
vt 0.0773 0.6442 0.0000
vt 0.1020 0.6141 0.0000
vt 0.1320 0.5895 0.0000
vt 0.1663 0.5711 0.0000
vt 0.2035 0.5599 0.0000
vt 0.2422 0.5560 0.0000
vt 0.2809 0.5599 0.0000
vt 0.3181 0.5711 0.0000
vt 0.3524 0.5895 0.0000
vt 0.3824 0.6141 0.0000
vt 0.4071 0.6442 0.0000
vt 0.4254 0.6785 0.0000
vt 0.4367 0.7157 0.0000
vt 0.4405 0.7544 0.0000
vt 0.4367 0.7930 0.0000
vt 0.4254 0.8303 0.0000
vt 0.4071 0.8645 0.0000
vt 0.3824 0.8946 0.0000
vt 0.3524 0.9192 0.0000
vt 0.3181 0.9376 0.0000
vt 0.2809 0.9489 0.0000
vt 0.2422 0.9786 0.0000
vt 0.1985 0.9743 0.0000
vt 0.1564 0.9615 0.0000
vt 0.1176 0.9408 0.0000
vt 0.0837 0.9129 0.0000
vt 0.0558 0.8789 0.0000
vt 0.0351 0.8402 0.0000
vt 0.0223 0.7981 0.0000
vt 0.0180 0.7544 0.0000
vt 0.0223 0.7106 0.0000
vt 0.0351 0.6686 0.0000
vt 0.0558 0.6298 0.0000
vt 0.0837 0.5958 0.0000
vt 0.1176 0.5679 0.0000
vt 0.1564 0.5472 0.0000
vt 0.1985 0.5345 0.0000
vt 0.2422 0.5301 0.0000
vt 0.2859 0.5345 0.0000
vt 0.3280 0.5472 0.0000
vt 0.3668 0.5679 0.0000
vt 0.4008 0.5958 0.0000
vt 0.4286 0.6298 0.0000
vt 0.4494 0.6686 0.0000
vt 0.4621 0.7106 0.0000
vt 0.4664 0.7544 0.0000
vt 0.4621 0.7981 0.0000
vt 0.4494 0.8402 0.0000
vt 0.4286 0.8789 0.0000
vt 0.4008 0.9129 0.0000
vt 0.3668 0.9408 0.0000
vt 0.3280 0.9615 0.0000
vt 0.2860 0.9743 0.0000
# 193 texture coords

o Object183
g Object183
s 1
f 1/1/1 2/2/2 3/3/3 
f 1/1/1 3/3/3 4/4/4 
f 1/1/1 4/4/4 5/5/5 
f 1/1/1 5/5/5 6/6/6 
f 1/1/1 6/6/6 7/7/7 
f 1/1/1 7/7/7 8/8/8 
f 1/1/1 8/8/8 9/9/9 
f 1/1/1 9/9/9 10/10/10 
f 1/1/1 10/10/10 11/11/11 
f 1/1/1 11/11/11 12/12/12 
f 1/1/1 12/12/12 13/13/13 
f 1/1/1 13/13/13 14/14/14 
f 1/1/1 14/14/14 15/15/15 
f 1/1/1 15/15/15 16/16/16 
f 1/1/1 16/16/16 17/17/17 
f 1/1/1 17/17/17 18/18/18 
f 1/1/1 18/18/18 19/19/19 
f 1/1/1 19/19/19 20/20/20 
f 1/1/1 20/20/20 21/21/21 
f 1/1/1 21/21/21 22/22/22 
f 1/1/1 22/22/22 23/23/23 
f 1/1/1 23/23/23 24/24/24 
f 1/1/1 24/24/24 25/25/25 
f 1/1/1 25/25/25 26/26/26 
f 1/1/1 26/26/26 27/27/27 
f 1/1/1 27/27/27 28/28/28 
f 1/1/1 28/28/28 29/29/29 
f 1/1/1 29/29/29 30/30/30 
f 1/1/1 30/30/30 31/31/31 
f 1/1/1 31/31/31 32/32/32 
f 1/1/1 32/32/32 33/33/33 
f 1/1/1 33/33/33 2/2/2 
f 2/2/2 34/34/34 35/35/35 3/3/3 
f 3/3/3 35/35/35 36/36/36 4/4/4 
f 4/4/4 36/36/36 37/37/37 5/5/5 
f 5/5/5 37/37/37 38/38/38 6/6/6 
f 6/6/6 38/38/38 39/39/39 7/7/7 
f 7/7/7 39/39/39 40/40/40 8/8/8 
f 8/8/8 40/40/40 41/41/41 9/9/9 
f 9/9/9 41/41/41 42/42/42 10/10/10 
f 10/10/10 42/42/42 43/43/43 11/11/11 
f 11/11/11 43/43/43 44/44/44 12/12/12 
f 12/12/12 44/44/44 45/45/45 13/13/13 
f 13/13/13 45/45/45 46/46/46 14/14/14 
f 14/14/14 46/46/46 47/47/47 15/15/15 
f 15/15/15 47/47/47 48/48/48 16/16/16 
f 16/16/16 48/48/48 49/49/49 17/17/17 
f 17/17/17 49/49/49 50/50/50 18/18/18 
f 18/18/18 50/50/50 51/51/51 19/19/19 
f 19/19/19 51/51/51 52/52/52 20/20/20 
f 20/20/20 52/52/52 53/53/53 21/21/21 
f 21/21/21 53/53/53 54/54/54 22/22/22 
f 22/22/22 54/54/54 55/55/55 23/23/23 
f 23/23/23 55/55/55 56/56/56 24/24/24 
f 24/24/24 56/56/56 57/57/57 25/25/25 
f 25/25/25 57/57/57 58/58/58 26/26/26 
f 26/26/26 58/58/58 59/59/59 27/27/27 
f 27/27/27 59/59/59 60/60/60 28/28/28 
f 28/28/28 60/60/60 61/61/61 29/29/29 
f 29/29/29 61/61/61 62/62/62 30/30/30 
f 30/30/30 62/62/62 63/63/63 31/31/31 
f 31/31/31 63/63/63 64/64/64 32/32/32 
f 32/32/32 64/64/64 65/65/65 33/33/33 
f 33/33/33 65/65/65 34/34/34 2/2/2 
f 34/34/34 66/66/66 67/67/67 35/35/35 
f 35/35/35 67/67/67 68/68/68 36/36/36 
f 36/36/36 68/68/68 69/69/69 37/37/37 
f 37/37/37 69/69/69 70/70/70 38/38/38 
f 38/38/38 70/70/70 71/71/71 39/39/39 
f 39/39/39 71/71/71 72/72/72 40/40/40 
f 40/40/40 72/72/72 73/73/73 41/41/41 
f 41/41/41 73/73/73 74/74/74 42/42/42 
f 42/42/42 74/74/74 75/75/75 43/43/43 
f 43/43/43 75/75/75 76/76/76 44/44/44 
f 44/44/44 76/76/76 77/77/77 45/45/45 
f 45/45/45 77/77/77 78/78/78 46/46/46 
f 46/46/46 78/78/78 79/79/79 47/47/47 
f 47/47/47 79/79/79 80/80/80 48/48/48 
f 48/48/48 80/80/80 81/81/81 49/49/49 
f 49/49/49 81/81/81 82/82/82 50/50/50 
f 50/50/50 82/82/82 83/83/83 51/51/51 
f 51/51/51 83/83/83 84/84/84 52/52/52 
f 52/52/52 84/84/84 85/85/85 53/53/53 
f 53/53/53 85/85/85 86/86/86 54/54/54 
f 54/54/54 86/86/86 87/87/87 55/55/55 
f 55/55/55 87/87/87 88/88/88 56/56/56 
f 56/56/56 88/88/88 89/89/89 57/57/57 
f 57/57/57 89/89/89 90/90/90 58/58/58 
f 58/58/58 90/90/90 91/91/91 59/59/59 
f 59/59/59 91/91/91 92/92/92 60/60/60 
f 60/60/60 92/92/92 93/93/93 61/61/61 
f 61/61/61 93/93/93 94/94/94 62/62/62 
f 62/62/62 94/94/94 95/95/95 63/63/63 
f 63/63/63 95/95/95 96/96/96 64/64/64 
f 64/64/64 96/96/96 97/97/97 65/65/65 
f 65/65/65 97/97/97 66/66/66 34/34/34 
f 66/66/66 98/98/98 99/99/99 67/67/67 
f 67/67/67 99/99/99 100/100/100 68/68/68 
f 68/68/68 100/100/100 101/101/101 69/69/69 
f 69/69/69 101/101/101 102/102/102 70/70/70 
f 70/70/70 102/102/102 103/103/103 71/71/71 
f 71/71/71 103/103/103 104/104/104 72/72/72 
f 72/72/72 104/104/104 105/105/105 73/73/73 
f 73/73/73 105/105/105 106/106/106 74/74/74 
f 74/74/74 106/106/106 107/107/107 75/75/75 
f 75/75/75 107/107/107 108/108/108 76/76/76 
f 76/76/76 108/108/108 109/109/109 77/77/77 
f 77/77/77 109/109/109 110/110/110 78/78/78 
f 78/78/78 110/110/110 111/111/111 79/79/79 
f 79/79/79 111/111/111 112/112/112 80/80/80 
f 80/80/80 112/112/112 113/113/113 81/81/81 
f 81/81/81 113/113/113 114/114/114 82/82/82 
f 82/82/82 114/114/114 115/115/115 83/83/83 
f 83/83/83 115/115/115 116/116/116 84/84/84 
f 84/84/84 116/116/116 117/117/117 85/85/85 
f 85/85/85 117/117/117 118/118/118 86/86/86 
f 86/86/86 118/118/118 119/119/119 87/87/87 
f 87/87/87 119/119/119 120/120/120 88/88/88 
f 88/88/88 120/120/120 121/121/121 89/89/89 
f 89/89/89 121/121/121 122/122/122 90/90/90 
f 90/90/90 122/122/122 123/123/123 91/91/91 
f 91/91/91 123/123/123 124/124/124 92/92/92 
f 92/92/92 124/124/124 125/125/125 93/93/93 
f 93/93/93 125/125/125 126/126/126 94/94/94 
f 94/94/94 126/126/126 127/127/127 95/95/95 
f 95/95/95 127/127/127 128/128/128 96/96/96 
f 96/96/96 128/128/128 129/129/129 97/97/97 
f 97/97/97 129/129/129 98/98/98 66/66/66 
f 98/98/98 130/130/130 131/131/131 99/99/99 
f 99/99/99 131/131/131 132/132/132 100/100/100 
f 100/100/100 132/132/132 133/133/133 101/101/101 
f 101/101/101 133/133/133 134/134/134 102/102/102 
f 102/102/102 134/134/134 135/135/135 103/103/103 
f 103/103/103 135/135/135 136/136/136 104/104/104 
f 104/104/104 136/136/136 137/137/137 105/105/105 
f 105/105/105 137/137/137 138/138/138 106/106/106 
f 106/106/106 138/138/138 139/139/139 107/107/107 
f 107/107/107 139/139/139 140/140/140 108/108/108 
f 108/108/108 140/140/140 141/141/141 109/109/109 
f 109/109/109 141/141/141 142/142/142 110/110/110 
f 110/110/110 142/142/142 143/143/143 111/111/111 
f 111/111/111 143/143/143 144/144/144 112/112/112 
f 112/112/112 144/144/144 145/145/145 113/113/113 
f 113/113/113 145/145/145 146/146/146 114/114/114 
f 114/114/114 146/146/146 147/147/147 115/115/115 
f 115/115/115 147/147/147 148/148/148 116/116/116 
f 116/116/116 148/148/148 149/149/149 117/117/117 
f 117/117/117 149/149/149 150/150/150 118/118/118 
f 118/118/118 150/150/150 151/151/151 119/119/119 
f 119/119/119 151/151/151 152/152/152 120/120/120 
f 120/120/120 152/152/152 153/153/153 121/121/121 
f 121/121/121 153/153/153 154/154/154 122/122/122 
f 122/122/122 154/154/154 155/155/155 123/123/123 
f 123/123/123 155/155/155 156/156/156 124/124/124 
f 124/124/124 156/156/156 157/157/157 125/125/125 
f 125/125/125 157/157/157 158/158/158 126/126/126 
f 126/126/126 158/158/158 159/159/159 127/127/127 
f 127/127/127 159/159/159 160/160/160 128/128/128 
f 128/128/128 160/160/160 161/161/161 129/129/129 
f 129/129/129 161/161/161 130/130/130 98/98/98 
f 130/130/130 162/162/162 163/163/163 131/131/131 
f 131/131/131 163/163/163 164/164/164 132/132/132 
f 132/132/132 164/164/164 165/165/165 133/133/133 
f 133/133/133 165/165/165 166/166/166 134/134/134 
f 134/134/134 166/166/166 167/167/167 135/135/135 
f 135/135/135 167/167/167 168/168/168 136/136/136 
f 136/136/136 168/168/168 169/169/169 137/137/137 
f 137/137/137 169/169/169 170/170/170 138/138/138 
f 138/138/138 170/170/170 171/171/171 139/139/139 
f 139/139/139 171/171/171 172/172/172 140/140/140 
f 140/140/140 172/172/172 173/173/173 141/141/141 
f 141/141/141 173/173/173 174/174/174 142/142/142 
f 142/142/142 174/174/174 175/175/175 143/143/143 
f 143/143/143 175/175/175 176/176/176 144/144/144 
f 144/144/144 176/176/176 177/177/177 145/145/145 
f 145/145/145 177/177/177 178/178/178 146/146/146 
f 146/146/146 178/178/178 179/179/179 147/147/147 
f 147/147/147 179/179/179 180/180/180 148/148/148 
f 148/148/148 180/180/180 181/181/181 149/149/149 
f 149/149/149 181/181/181 182/182/182 150/150/150 
f 150/150/150 182/182/182 183/183/183 151/151/151 
f 151/151/151 183/183/183 184/184/184 152/152/152 
f 152/152/152 184/184/184 185/185/185 153/153/153 
f 153/153/153 185/185/185 186/186/186 154/154/154 
f 154/154/154 186/186/186 187/187/187 155/155/155 
f 155/155/155 187/187/187 188/188/188 156/156/156 
f 156/156/156 188/188/188 189/189/189 157/157/157 
f 157/157/157 189/189/189 190/190/190 158/158/158 
f 158/158/158 190/190/190 191/191/191 159/159/159 
f 159/159/159 191/191/191 192/192/192 160/160/160 
f 160/160/160 192/192/192 193/193/193 161/161/161 
f 161/161/161 193/193/193 162/162/162 130/130/130 
# 160 polygons - 32 triangles

